# xmcd
#
# Track frame offsets:
# 150
# 23175
# 44058
# 63071
# 82360
# 101918
# 120770
# 138428
# 156233
# 174649
# 192395
# 208413
# 228234
#
# Disc length: 3273 seconds
#
#
# Revision: 1
# Processed by: cddbd v1.5.1PL0 Copyright (c) Steve Scherf et al.
# Submitted via: FreeRIP 2.70 
#
DISCID=bb0cc70d
DTITLE=Promo Only - Club Dec 04
DYEAR=2004
DGENRE=Urban Club
TTITLE0=Eminem ft. Dr. Dre and 50 Cent - Encore87 BPM
TTITLE1=Fabolous ft. Pharrell - Tit 4 Tat94 BPM
TTITLE2=Brooke Valentine ft. Big Boi - Girlfight100 BPM
TTITLE3=Jim Jones - Crunk Muzik77 BPM
TTITLE4=Sha Stimuli ft. Bruce Waynne - Clap At Ya98 BPM
TTITLE5=Trick Daddy ft. Trina, Ying Yang Twins and Duece Komradz - Down Wit Da South128 BPM
TTITLE6=YoungBloodz ft. Young Buck - Datz Me80 BPM
TTITLE7=Bump J - Bump J93 BPM
TTITLE8=Trick Daddy ft. Ludacris and Cee-Lo - Sugar (Gimme Some)120 BPM
TTITLE9=Diplomats ft. Cam'ron, Jim Jones, Juelz Santana and J.R. Writer - Push It130 BPM
TTITLE10=Jin - So Afraid98 BPM
TTITLE11=Juelz Santana - S.A.N.T.A.N.A.74 BPM
TTITLE12=Kevin Lyttle ft. Mr. Easy - Drive Me Crazy99 BPM
EXTD=
EXTT0=
EXTT1=
EXTT2=
EXTT3=
EXTT4=
EXTT5=
EXTT6=
EXTT7=
EXTT8=
EXTT9=
EXTT10=
EXTT11=
EXTT12=
PLAYORDER=
